<svg
	xmlns="http://www.w3.org/2000/svg"
	width="512"
	height="512"
	viewBox="227 227 800 800"
	role="img"
	aria-hidden="true"
>
	<path
		fill="#fb7d37"
		d="m375.5 311.5-22 5-26 11-24 16-24 24-14 21-13 31-5 24v33l3 15 6 18 8 15 17 20 1 43 7 33 11 28 19 32 17 21 32 28 34 20 32 12 8 1v-79l-23-10-12-8-19-17-12-15-10-17-7-18-4-18-1-18 2-2 6-1 14-6 26-18 15-16 17-26 11-26 7-28 3-23v-36l-5-8h-11l-69 68h-5l-4-5-10-28 1-6 47-67 6-11-2-8-6-4ZM879.5 311.5h-23l-5 3-3 9 54 78v9l-10 27-3 3h-6l-69-68h-11l-4 5-1 6v31l5 34 9 29 11 23 13 19 21 21 18 12 16 7 6 1 2 2-1 18-4 18-7 18-10 17-11 14-16 15-16 11-18 9-5 1v80l26-8 16-7 32-19 24-20 25-29 18-30 13-34 7-39-1-32 10-10 11-16 10-24 4-19 1-22-2-18-4-17-13-31-14-21-19-20-24-17-25-12ZM481.5 528.5l-13 14-4 8-3 12v369l2 5 5 5 6 2h4l7-3 141-102h2l143 104 8 1 6-2 5-5 2-5v-370l-2-9-6-12-9-10-13-8-14-3h-241l-15 3Z"
	/>
	<path
		fill="#fff"
		d="M483.5 655.5v30l7 21 4 6 13 11 12 5 10 2 39-1 7-2 14-8 9-10 6-11 3-11 1-19 10-5h18l8 3 3 3v13l2 12 6 13 4 6 9 8 18 8 39 1 14-3 13-7 8-8 7-11 4-14v-33l-5-12-10-10-18-6h-57l-10 2-10 5-8 8-6 15-13-4h-14l-12 4-8-17-12-9-9-3-62-1-10 2-10 5-10 11Z"
	/>
	<path
		fill="#fb7d37"
		d="m498.5 647.5-4 9v29l2 8 5 10 9 9 10 5 10 2h29l16-4 14-12 7-19v-27l-4-10-8-7-11-3h-55l-9 2ZM662.5 648.5l-4 10v25l2 9 7 13 12 10 16 4 35-1 14-6 10-10 6-16v-31l-3-7-7-7-13-4h-55l-13 4Z"
	/>
	<path
		fill="#fff"
		d="m552.5 664.5-4 2-5 7 1 12 7 6h11l8-8v-10l-5-7-4-2ZM694.5 664.5l-3 1-6 6-1 11 6 8 10 2 9-5 3-7v-5l-2-5-5-5Z"
	/>
</svg>
