<svg
  xmlns="http://www.w3.org/2000/svg"
  width="512"
  height="512"
  viewBox="227 227 800 800"
>
  <path
    d="M 375.5,311.5 L 353.5,316.5 L 327.5,327.5 L 303.5,343.5 L 279.5,367.5 L 265.5,388.5 L 252.5,419.5 L 247.5,443.5 L 247.5,476.5 L 250.5,491.5 L 256.5,509.5 L 264.5,524.5 L 281.5,544.5 L 282.5,587.5 L 289.5,620.5 L 300.5,648.5 L 319.5,680.5 L 336.5,701.5 L 368.5,729.5 L 402.5,749.5 L 434.5,761.5 L 442.5,762.5 L 442.5,683.5 L 419.5,673.5 L 407.5,665.5 L 388.5,648.5 L 376.5,633.5 L 366.5,616.5 L 359.5,598.5 L 355.5,580.5 L 354.5,562.5 L 356.5,560.5 L 362.5,559.5 L 376.5,553.5 L 402.5,535.5 L 417.5,519.5 L 434.5,493.5 L 445.5,467.5 L 452.5,439.5 L 455.5,416.5 L 455.5,380.5 L 450.5,372.5 L 439.5,372.5 L 370.5,440.5 L 365.5,440.5 L 361.5,435.5 L 351.5,407.5 L 352.5,401.5 L 399.5,334.5 L 405.5,323.5 L 403.5,315.5 L 397.5,311.5 Z"
    fill="#FB7D37"
  />
  <path
    d="M 879.5,311.5 L 856.5,311.5 L 851.5,314.5 L 848.5,323.5 L 902.5,401.5 L 902.5,410.5 L 892.5,437.5 L 889.5,440.5 L 883.5,440.5 L 814.5,372.5 L 803.5,372.5 L 799.5,377.5 L 798.5,383.5 L 798.5,414.5 L 803.5,448.5 L 812.5,477.5 L 823.5,500.5 L 836.5,519.5 L 857.5,540.5 L 875.5,552.5 L 891.5,559.5 L 897.5,560.5 L 899.5,562.5 L 898.5,580.5 L 894.5,598.5 L 887.5,616.5 L 877.5,633.5 L 866.5,647.5 L 850.5,662.5 L 834.5,673.5 L 816.5,682.5 L 811.5,683.5 L 811.5,763.5 L 837.5,755.5 L 853.5,748.5 L 885.5,729.5 L 909.5,709.5 L 934.5,680.5 L 952.5,650.5 L 965.5,616.5 L 972.5,577.5 L 971.5,545.5 L 981.5,535.5 L 992.5,519.5 L 1002.5,495.5 L 1006.5,476.5 L 1007.5,454.5 L 1005.5,436.5 L 1001.5,419.5 L 988.5,388.5 L 974.5,367.5 L 955.5,347.5 L 931.5,330.5 L 906.5,318.5 Z"
    fill="#FB7D37"
  />
  <path
    d="M 481.5,528.5 L 468.5,542.5 L 464.5,550.5 L 461.5,562.5 L 461.5,931.5 L 463.5,936.5 L 468.5,941.5 L 474.5,943.5 L 478.5,943.5 L 485.5,940.5 L 626.5,838.5 L 628.5,838.5 L 771.5,942.5 L 779.5,943.5 L 785.5,941.5 L 790.5,936.5 L 792.5,931.5 L 792.5,561.5 L 790.5,552.5 L 784.5,540.5 L 775.5,530.5 L 762.5,522.5 L 748.5,519.5 L 507.5,519.5 L 492.5,522.5 Z"
    fill="#FB7D37"
  />
  <path
    d="M 483.5,655.5 L 483.5,685.5 L 490.5,706.5 L 494.5,712.5 L 507.5,723.5 L 519.5,728.5 L 529.5,730.5 L 568.5,729.5 L 575.5,727.5 L 589.5,719.5 L 598.5,709.5 L 604.5,698.5 L 607.5,687.5 L 608.5,668.5 L 618.5,663.5 L 636.5,663.5 L 644.5,666.5 L 647.5,669.5 L 647.5,682.5 L 649.5,694.5 L 655.5,707.5 L 659.5,713.5 L 668.5,721.5 L 686.5,729.5 L 725.5,730.5 L 739.5,727.5 L 752.5,720.5 L 760.5,712.5 L 767.5,701.5 L 771.5,687.5 L 771.5,654.5 L 766.5,642.5 L 756.5,632.5 L 738.5,626.5 L 681.5,626.5 L 671.5,628.5 L 661.5,633.5 L 653.5,641.5 L 647.5,656.5 L 634.5,652.5 L 620.5,652.5 L 608.5,656.5 L 600.5,639.5 L 588.5,630.5 L 579.5,627.5 L 517.5,626.5 L 507.5,628.5 L 497.5,633.5 L 487.5,644.5 Z"
    fill="#FFFFFF"
  />
  <path
    d="M 498.5,647.5 L 494.5,656.5 L 494.5,685.5 L 496.5,693.5 L 501.5,703.5 L 510.5,712.5 L 520.5,717.5 L 530.5,719.5 L 559.5,719.5 L 575.5,715.5 L 589.5,703.5 L 596.5,684.5 L 596.5,657.5 L 592.5,647.5 L 584.5,640.5 L 573.5,637.5 L 518.5,637.5 L 509.5,639.5 Z"
    fill="#FB7D37"
  />
  <path
    d="M 662.5,648.5 L 658.5,658.5 L 658.5,683.5 L 660.5,692.5 L 667.5,705.5 L 679.5,715.5 L 695.5,719.5 L 730.5,718.5 L 744.5,712.5 L 754.5,702.5 L 760.5,686.5 L 760.5,655.5 L 757.5,648.5 L 750.5,641.5 L 737.5,637.5 L 682.5,637.5 L 669.5,641.5 Z"
    fill="#FB7D37"
  />
  <path
    d="M 552.5,664.5 L 548.5,666.5 L 543.5,673.5 L 544.5,685.5 L 551.5,691.5 L 562.5,691.5 L 570.5,683.5 L 570.5,673.5 L 565.5,666.5 L 561.5,664.5 Z"
    fill="#FFFFFF"
  />
  <path
    d="M 694.5,664.5 L 691.5,665.5 L 685.5,671.5 L 684.5,682.5 L 690.5,690.5 L 700.5,692.5 L 709.5,687.5 L 712.5,680.5 L 712.5,675.5 L 710.5,670.5 L 705.5,665.5 Z"
    fill="#FFFFFF"
  />
</svg>
